<svg xmlns="http://www.w3.org/2000/svg" width="117" height="27" viewBox="0 0 117 27">
    <g fill="#FFF" fill-rule="evenodd">
        <path d="M13.047 26.923H9.584l-1.45-14.836-1.65 14.836H3.06L0 0h4.027L5.315 16.98 6.886 0h3.1l1.33 16.979L12.845 0h3.744zM22.308 26.923h4.148V0h-4.148zM37.047 22.961h4.791v3.962h-9.342v-1.415L37.53 3.962h-4.752V0h9.302v1.415zM48.282 26.923V0h8.697v3.881h-4.55v7.357h3.02v3.679h-3.02v8.004h4.55v4.002zM63.824 26.923V0h2.9v24.134h5.436v2.789zM79.045 26.923h2.94V0h-2.94zM98.334 26.923L93.784 13.3l-1.29-4.326v17.949h-2.737V0h2.617l4.147 13.825 1.209 4.367V0h2.738v26.923zM108.2 26.923V0h8.536V2.71h-5.638v8.974h4.068v2.628h-4.068v9.904h5.638v2.708z"/>
    </g>
</svg>
