<svg xmlns="http://www.w3.org/2000/svg" xmlns:xlink="http://www.w3.org/1999/xlink" viewBox="0 0 175.69 118.58"><defs><style>.cls-1{fill:url(#linear-gradient);}.cls-2{fill:#e93d44;}</style><linearGradient id="linear-gradient" x1="192.61" y1="215.13" x2="116.69" y2="6.55" gradientUnits="userSpaceOnUse"><stop offset="0.55" stop-color="#e93d44"/><stop offset="1" stop-color="#701d21"/></linearGradient></defs><g id="Layer_2" data-name="Layer 2"><g id="Layer_1-2" data-name="Layer 1"><path class="cls-1" d="M166.11,0H137a13.12,13.12,0,0,0-11.73,7.25l-3,5.93A4.07,4.07,0,0,1,126,19.07L89.37,92.23,98,109.49a16.27,16.27,0,0,0,12.69,9,16,16,0,0,0,16-8.74l47.94-95.89A9.58,9.58,0,0,0,166.11,0Z"/><path class="cls-2" d="M115.72,0H99.47A16.36,16.36,0,0,0,84.85,9L66.3,46.13a3.67,3.67,0,0,1-6.57,0l-15-29.92a5.46,5.46,0,0,0-4.9-3H4.65A4.64,4.64,0,0,0,.5,19.9l44.92,89.85a16,16,0,0,0,28.6,0l48.29-96.57,3-5.93A13.12,13.12,0,0,1,137,0Z"/><path class="cls-2" d="M136.48,114.7h-1v-.37H138v.37h-1v3h-.44Z"/><path class="cls-2" d="M141.14,116.21c0-.47,0-1,0-1.45h0c-.12.39-.26.81-.42,1.27l-.6,1.63h-.32l-.55-1.6c-.15-.47-.29-.9-.38-1.3h0c0,.42,0,1-.07,1.48l-.09,1.44h-.41l.23-3.35H139l.57,1.62a11.31,11.31,0,0,1,.33,1.13h0a10.77,10.77,0,0,1,.35-1.13l.6-1.62h.55l.21,3.35h-.42Z"/></g></g></svg>